G04 --- HEADER BEGIN --- *
G04 #@! TF.GenerationSoftware,LibrePCB,LibrePCB,0.1.7*
G04 #@! TF.CreationDate,2023-06-03T19:29:22*
G04 #@! TF.ProjectId,THQRightThrottle,1801acc5-9244-403a-a77d-ebbcc31c52c0,v1*
G04 #@! TF.Part,Single*
G04 #@! TF.SameCoordinates*
G04 #@! TF.FileFunction,Legend,Top*
G04 #@! TF.FilePolarity,Positive*
%FSLAX66Y66*%
%MOMM*%
G01*
G75*
G04 --- HEADER END --- *
G04 --- APERTURE LIST BEGIN --- *
%ADD10C,0.25*%
%ADD11C,0.2*%
%ADD12C,0.1*%
%ADD13R,2.39X1.787*%
%ADD14O,2.39X1.787*%
%ADD15O,1.787X2.39*%
%ADD16R,1.787X2.39*%
%ADD17C,2.2*%
G04 --- APERTURE LIST END --- *
G04 --- BOARD BEGIN --- *
D10*
G04 #@! TO.C,J_HAT*
X-12575000Y9380000D02*
X-12575000Y7255000D01*
X-12845000Y6985000D01*
X-12575000Y6715000D01*
X-12575000Y4715000D01*
X-12845000Y4445000D01*
X-12575000Y4175000D01*
X-12575000Y2175000D01*
X-12845000Y1905000D01*
X-12575000Y1635000D01*
X-12575000Y-365000D01*
X-12845000Y-635000D01*
X-12575000Y-905000D01*
X-12575000Y-2905000D01*
X-12845000Y-3175000D01*
X-12575000Y-3445000D01*
X-12575000Y-5570000D01*
X-12845000Y-5840000D01*
X-15095000Y-5840000D01*
X-15365000Y-5570000D01*
X-15365000Y-3445000D01*
X-15095000Y-3175000D01*
X-15365000Y-2905000D01*
X-15365000Y-905000D01*
X-15095000Y-635000D01*
X-15365000Y-365000D01*
X-15365000Y1635000D01*
X-15095000Y1905000D01*
X-15365000Y2175000D01*
X-15365000Y4175000D01*
X-15095000Y4445000D01*
X-15365000Y4715000D01*
X-15365000Y6715000D01*
X-15095000Y6985000D01*
X-15365000Y7255000D01*
X-15365000Y9380000D01*
X-15095000Y9650000D01*
X-12845000Y9650000D01*
X-12575000Y9380000D01*
G04 #@! TO.C,J_2WAY2*
X2665000Y-34165000D02*
X2665000Y-36955000D01*
X-5205000Y-36955000D01*
X-5205000Y-34165000D01*
X2665000Y-34165000D01*
G04 #@! TO.C,J_TDC*
X11940000Y-5570000D02*
X11940000Y-3445000D01*
X12210000Y-3175000D01*
X11940000Y-2905000D01*
X11940000Y-905000D01*
X12210000Y-635000D01*
X11940000Y-365000D01*
X11940000Y1635000D01*
X12210000Y1905000D01*
X11940000Y2175000D01*
X11940000Y4175000D01*
X12210000Y4445000D01*
X11940000Y4715000D01*
X11940000Y6840000D01*
X12210000Y7110000D01*
X14460000Y7110000D01*
X14730000Y6840000D01*
X14730000Y4715000D01*
X14460000Y4445000D01*
X14730000Y4175000D01*
X14730000Y2175000D01*
X14460000Y1905000D01*
X14730000Y1635000D01*
X14730000Y-365000D01*
X14460000Y-635000D01*
X14730000Y-905000D01*
X14730000Y-2905000D01*
X14460000Y-3175000D01*
X14730000Y-3445000D01*
X14730000Y-5570000D01*
X14460000Y-5840000D01*
X12210000Y-5840000D01*
X11940000Y-5570000D01*
G04 #@! TO.C,J_3WAY*
X2665000Y-41785000D02*
X2665000Y-44575000D01*
X-7745000Y-44575000D01*
X-7745000Y-41785000D01*
X2665000Y-41785000D01*
G04 #@! TO.C,J_PUSH*
X-36955000Y-490000D02*
X-36955000Y1635000D01*
X-36685000Y1905000D01*
X-36955000Y2175000D01*
X-36955000Y4300000D01*
X-36685000Y4570000D01*
X-34435000Y4570000D01*
X-34165000Y4300000D01*
X-34165000Y2175000D01*
X-34435000Y1905000D01*
X-34165000Y1635000D01*
X-34165000Y-490000D01*
X-34435000Y-760000D01*
X-36685000Y-760000D01*
X-36955000Y-490000D01*
G04 #@! TO.C,J_DOWN*
X-30605000Y-490000D02*
X-30605000Y1635000D01*
X-30335000Y1905000D01*
X-30605000Y2175000D01*
X-30605000Y4300000D01*
X-30335000Y4570000D01*
X-28085000Y4570000D01*
X-27815000Y4300000D01*
X-27815000Y2175000D01*
X-28085000Y1905000D01*
X-27815000Y1635000D01*
X-27815000Y-490000D01*
X-28085000Y-760000D01*
X-30335000Y-760000D01*
X-30605000Y-490000D01*
G04 #@! TO.C,J_LEFT*
X-24255000Y-490000D02*
X-24255000Y1635000D01*
X-23985000Y1905000D01*
X-24255000Y2175000D01*
X-24255000Y4300000D01*
X-23985000Y4570000D01*
X-21735000Y4570000D01*
X-21465000Y4300000D01*
X-21465000Y2175000D01*
X-21735000Y1905000D01*
X-21465000Y1635000D01*
X-21465000Y-490000D01*
X-21735000Y-760000D01*
X-23985000Y-760000D01*
X-24255000Y-490000D01*
D11*
G04 #@! TO.C,U_PRO_MICRO*
X-8950000Y14595000D02*
X8950000Y14595000D01*
X8950000Y-18405000D01*
X-8950000Y-18405000D01*
X-8950000Y14595000D01*
D10*
G04 #@! TO.C,J_2WAY1*
X2665000Y-37975000D02*
X2665000Y-40765000D01*
X-5205000Y-40765000D01*
X-5205000Y-37975000D01*
X2665000Y-37975000D01*
G04 #@! TO.C,J_RIGHT*
X-27430000Y-490000D02*
X-27430000Y1635000D01*
X-27160000Y1905000D01*
X-27430000Y2175000D01*
X-27430000Y4300000D01*
X-27160000Y4570000D01*
X-24910000Y4570000D01*
X-24640000Y4300000D01*
X-24640000Y2175000D01*
X-24910000Y1905000D01*
X-24640000Y1635000D01*
X-24640000Y-490000D01*
X-24910000Y-760000D01*
X-27160000Y-760000D01*
X-27430000Y-490000D01*
G04 #@! TO.C,J_UP*
X-33780000Y-490000D02*
X-33780000Y1635000D01*
X-33510000Y1905000D01*
X-33780000Y2175000D01*
X-33780000Y4300000D01*
X-33510000Y4570000D01*
X-31260000Y4570000D01*
X-30990000Y4300000D01*
X-30990000Y2175000D01*
X-31260000Y1905000D01*
X-30990000Y1635000D01*
X-30990000Y-490000D01*
X-31260000Y-760000D01*
X-33510000Y-760000D01*
X-33780000Y-490000D01*
G04 #@! TO.C,J_SWITCHES2*
X10015000Y-29970000D02*
X7890000Y-29970000D01*
X7620000Y-29700000D01*
X7350000Y-29970000D01*
X5350000Y-29970000D01*
X5080000Y-29700000D01*
X4810000Y-29970000D01*
X2810000Y-29970000D01*
X2540000Y-29700000D01*
X2270000Y-29970000D01*
X270000Y-29970000D01*
X0Y-29700000D01*
X-270000Y-29970000D01*
X-2270000Y-29970000D01*
X-2540000Y-29700000D01*
X-2810000Y-29970000D01*
X-4810000Y-29970000D01*
X-5080000Y-29700000D01*
X-5350000Y-29970000D01*
X-7350000Y-29970000D01*
X-7620000Y-29700000D01*
X-7890000Y-29970000D01*
X-10015000Y-29970000D01*
X-10285000Y-29700000D01*
X-10285000Y-27450000D01*
X-10015000Y-27180000D01*
X-7890000Y-27180000D01*
X-7620000Y-27450000D01*
X-7350000Y-27180000D01*
X-5350000Y-27180000D01*
X-5080000Y-27450000D01*
X-4810000Y-27180000D01*
X-2810000Y-27180000D01*
X-2540000Y-27450000D01*
X-2270000Y-27180000D01*
X-270000Y-27180000D01*
X0Y-27450000D01*
X270000Y-27180000D01*
X2270000Y-27180000D01*
X2540000Y-27450000D01*
X2810000Y-27180000D01*
X4810000Y-27180000D01*
X5080000Y-27450000D01*
X5350000Y-27180000D01*
X7350000Y-27180000D01*
X7620000Y-27450000D01*
X7890000Y-27180000D01*
X10015000Y-27180000D01*
X10285000Y-27450000D01*
X10285000Y-29700000D01*
X10015000Y-29970000D01*
G04 #@! TO.C,J_SWITCHES*
X10015000Y-25525000D02*
X7890000Y-25525000D01*
X7620000Y-25255000D01*
X7350000Y-25525000D01*
X5350000Y-25525000D01*
X5080000Y-25255000D01*
X4810000Y-25525000D01*
X2810000Y-25525000D01*
X2540000Y-25255000D01*
X2270000Y-25525000D01*
X270000Y-25525000D01*
X0Y-25255000D01*
X-270000Y-25525000D01*
X-2270000Y-25525000D01*
X-2540000Y-25255000D01*
X-2810000Y-25525000D01*
X-4810000Y-25525000D01*
X-5080000Y-25255000D01*
X-5350000Y-25525000D01*
X-7350000Y-25525000D01*
X-7620000Y-25255000D01*
X-7890000Y-25525000D01*
X-10015000Y-25525000D01*
X-10285000Y-25255000D01*
X-10285000Y-23005000D01*
X-10015000Y-22735000D01*
X-7890000Y-22735000D01*
X-7620000Y-23005000D01*
X-7350000Y-22735000D01*
X-5350000Y-22735000D01*
X-5080000Y-23005000D01*
X-4810000Y-22735000D01*
X-2810000Y-22735000D01*
X-2540000Y-23005000D01*
X-2270000Y-22735000D01*
X-270000Y-22735000D01*
X0Y-23005000D01*
X270000Y-22735000D01*
X2270000Y-22735000D01*
X2540000Y-23005000D01*
X2810000Y-22735000D01*
X4810000Y-22735000D01*
X5080000Y-23005000D01*
X5350000Y-22735000D01*
X7350000Y-22735000D01*
X7620000Y-23005000D01*
X7890000Y-22735000D01*
X10015000Y-22735000D01*
X10285000Y-23005000D01*
X10285000Y-25255000D01*
X10015000Y-25525000D01*
G04 #@! TO.C,J_HAT2*
X-17020000Y9380000D02*
X-17020000Y7255000D01*
X-17290000Y6985000D01*
X-17020000Y6715000D01*
X-17020000Y4715000D01*
X-17290000Y4445000D01*
X-17020000Y4175000D01*
X-17020000Y2175000D01*
X-17290000Y1905000D01*
X-17020000Y1635000D01*
X-17020000Y-365000D01*
X-17290000Y-635000D01*
X-17020000Y-905000D01*
X-17020000Y-2905000D01*
X-17290000Y-3175000D01*
X-17020000Y-3445000D01*
X-17020000Y-5570000D01*
X-17290000Y-5840000D01*
X-19540000Y-5840000D01*
X-19810000Y-5570000D01*
X-19810000Y-3445000D01*
X-19540000Y-3175000D01*
X-19810000Y-2905000D01*
X-19810000Y-905000D01*
X-19540000Y-635000D01*
X-19810000Y-365000D01*
X-19810000Y1635000D01*
X-19540000Y1905000D01*
X-19810000Y2175000D01*
X-19810000Y4175000D01*
X-19540000Y4445000D01*
X-19810000Y4715000D01*
X-19810000Y6715000D01*
X-19540000Y6985000D01*
X-19810000Y7255000D01*
X-19810000Y9380000D01*
X-19540000Y9650000D01*
X-17290000Y9650000D01*
X-17020000Y9380000D01*
D11*
G04 #@! TO.C,J_HAT*
X-11160000Y-625000D02*
X-10445556Y-625000D01*
X-10303333Y-672778D01*
X-10207778Y-768333D01*
X-10160000Y-910555D01*
X-10160000Y-1006111D01*
X-10064444Y-225000D02*
X-10064444Y537222D01*
X-10160000Y937222D02*
X-11160000Y937222D01*
X-10683333Y937222D02*
X-10683333Y1508333D01*
X-10160000Y1508333D02*
X-11160000Y1508333D01*
X-10445556Y2003889D02*
X-10445556Y2479444D01*
X-10160000Y1908333D02*
X-11160000Y2241666D01*
X-10160000Y2575000D01*
X-11160000Y2975000D02*
X-11160000Y3546111D01*
X-10160000Y3260556D02*
X-11160000Y3260556D01*
D12*
G04 #@! TO.C,J_2WAY2*
X3175000Y-37112221D02*
X3532222Y-37112221D01*
X3603333Y-37136110D01*
X3651111Y-37183888D01*
X3675000Y-37254999D01*
X3675000Y-37302777D01*
X3722778Y-36912221D02*
X3722778Y-36531110D01*
X3222778Y-36307221D02*
X3198889Y-36283332D01*
X3175000Y-36236110D01*
X3175000Y-36116666D01*
X3198889Y-36069443D01*
X3222778Y-36045554D01*
X3270000Y-36021666D01*
X3317778Y-36021666D01*
X3389444Y-36045554D01*
X3675000Y-36331110D01*
X3675000Y-36021666D01*
X3175000Y-35821666D02*
X3675000Y-35702777D01*
X3317778Y-35607222D01*
X3675000Y-35512222D01*
X3175000Y-35393333D01*
X3532222Y-35145555D02*
X3532222Y-34907777D01*
X3675000Y-35193333D02*
X3175000Y-35026666D01*
X3675000Y-34860000D01*
X3436667Y-34493333D02*
X3675000Y-34493333D01*
X3175000Y-34660000D02*
X3436667Y-34493333D01*
X3175000Y-34326667D01*
X3222778Y-34102778D02*
X3198889Y-34078889D01*
X3175000Y-34031667D01*
X3175000Y-33912223D01*
X3198889Y-33865000D01*
X3222778Y-33841111D01*
X3270000Y-33817223D01*
X3317778Y-33817223D01*
X3389444Y-33841111D01*
X3675000Y-34126667D01*
X3675000Y-33817223D01*
D11*
G04 #@! TO.C,J_TDC*
X10160000Y-2506111D02*
X10874444Y-2506111D01*
X11016667Y-2553889D01*
X11112222Y-2649444D01*
X11160000Y-2791666D01*
X11160000Y-2887222D01*
X11255556Y-2106111D02*
X11255556Y-1343889D01*
X10160000Y-943889D02*
X10160000Y-372778D01*
X11160000Y-658333D02*
X10160000Y-658333D01*
X11160000Y27222D02*
X10160000Y27222D01*
X10160000Y265000D01*
X10207778Y408333D01*
X10303333Y503889D01*
X10397778Y550555D01*
X10588889Y598333D01*
X10731111Y598333D01*
X10922222Y550555D01*
X11016667Y503889D01*
X11112222Y408333D01*
X11160000Y265000D01*
X11160000Y27222D01*
X11064444Y1617222D02*
X11112222Y1569444D01*
X11160000Y1427222D01*
X11160000Y1331666D01*
X11112222Y1188333D01*
X11016667Y1093889D01*
X10922222Y1046111D01*
X10731111Y998333D01*
X10588889Y998333D01*
X10397778Y1046111D01*
X10303333Y1093889D01*
X10207778Y1188333D01*
X10160000Y1331666D01*
X10160000Y1427222D01*
X10207778Y1569444D01*
X10255556Y1617222D01*
D12*
G04 #@! TO.C,J_3WAY*
X3175000Y-44477499D02*
X3532222Y-44477499D01*
X3603333Y-44501388D01*
X3651111Y-44549166D01*
X3675000Y-44620277D01*
X3675000Y-44668055D01*
X3722778Y-44277499D02*
X3722778Y-43896388D01*
X3175000Y-43696388D02*
X3175000Y-43386944D01*
X3365556Y-43553610D01*
X3365556Y-43481944D01*
X3389444Y-43434721D01*
X3413333Y-43410832D01*
X3460556Y-43386944D01*
X3580000Y-43386944D01*
X3627222Y-43410832D01*
X3651111Y-43434721D01*
X3675000Y-43481944D01*
X3675000Y-43624721D01*
X3651111Y-43672499D01*
X3627222Y-43696388D01*
X3175000Y-43186944D02*
X3675000Y-43068055D01*
X3317778Y-42972500D01*
X3675000Y-42877500D01*
X3175000Y-42758611D01*
X3532222Y-42510833D02*
X3532222Y-42273055D01*
X3675000Y-42558611D02*
X3175000Y-42391944D01*
X3675000Y-42225278D01*
X3436667Y-41858611D02*
X3675000Y-41858611D01*
X3175000Y-42025278D02*
X3436667Y-41858611D01*
X3175000Y-41691945D01*
G04 #@! TO.C,J_PUSH*
X-36726389Y5715000D02*
X-36726389Y5357778D01*
X-36750278Y5286667D01*
X-36798056Y5238889D01*
X-36869167Y5215000D01*
X-36916945Y5215000D01*
X-36526389Y5167222D02*
X-36145278Y5167222D01*
X-35945278Y5215000D02*
X-35945278Y5715000D01*
X-35754722Y5715000D01*
X-35706945Y5691111D01*
X-35683611Y5667222D01*
X-35659722Y5620000D01*
X-35659722Y5548333D01*
X-35683611Y5500556D01*
X-35706945Y5476667D01*
X-35754722Y5453333D01*
X-35945278Y5453333D01*
X-35459722Y5715000D02*
X-35459722Y5310000D01*
X-35435833Y5262778D01*
X-35411944Y5238889D01*
X-35364722Y5215000D01*
X-35269166Y5215000D01*
X-35221389Y5238889D01*
X-35198055Y5262778D01*
X-35174166Y5310000D01*
X-35174166Y5715000D01*
X-34974166Y5238889D02*
X-34902499Y5215000D01*
X-34783610Y5215000D01*
X-34735833Y5238889D01*
X-34712499Y5262778D01*
X-34688610Y5310000D01*
X-34688610Y5357778D01*
X-34712499Y5405556D01*
X-34735833Y5429444D01*
X-34783610Y5453333D01*
X-34879166Y5476667D01*
X-34926388Y5500556D01*
X-34950277Y5524444D01*
X-34974166Y5572222D01*
X-34974166Y5620000D01*
X-34950277Y5667222D01*
X-34926388Y5691111D01*
X-34879166Y5715000D01*
X-34759722Y5715000D01*
X-34688610Y5691111D01*
X-34488610Y5215000D02*
X-34488610Y5715000D01*
X-34488610Y5476667D02*
X-34203054Y5476667D01*
X-34203054Y5215000D02*
X-34203054Y5715000D01*
G04 #@! TO.C,J_DOWN*
X-30471666Y5715000D02*
X-30471666Y5357778D01*
X-30495555Y5286667D01*
X-30543333Y5238889D01*
X-30614444Y5215000D01*
X-30662222Y5215000D01*
X-30271666Y5167222D02*
X-29890555Y5167222D01*
X-29690555Y5215000D02*
X-29690555Y5715000D01*
X-29571666Y5715000D01*
X-29499999Y5691111D01*
X-29452222Y5643333D01*
X-29428888Y5596111D01*
X-29404999Y5500556D01*
X-29404999Y5429444D01*
X-29428888Y5333889D01*
X-29452222Y5286667D01*
X-29499999Y5238889D01*
X-29571666Y5215000D01*
X-29690555Y5215000D01*
X-29086110Y5715000D02*
X-28990555Y5715000D01*
X-28943332Y5691111D01*
X-28895555Y5643333D01*
X-28871666Y5548333D01*
X-28871666Y5381667D01*
X-28895555Y5286667D01*
X-28943332Y5238889D01*
X-28990555Y5215000D01*
X-29086110Y5215000D01*
X-29133332Y5238889D01*
X-29181110Y5286667D01*
X-29204999Y5381667D01*
X-29204999Y5548333D01*
X-29181110Y5643333D01*
X-29133332Y5691111D01*
X-29086110Y5715000D01*
X-28671666Y5715000D02*
X-28552777Y5215000D01*
X-28457222Y5572222D01*
X-28362222Y5215000D01*
X-28243333Y5715000D01*
X-28043333Y5215000D02*
X-28043333Y5715000D01*
X-27757777Y5215000D01*
X-27757777Y5715000D01*
G04 #@! TO.C,J_LEFT*
X-23955555Y5730000D02*
X-23955555Y5372778D01*
X-23979444Y5301667D01*
X-24027222Y5253889D01*
X-24098333Y5230000D01*
X-24146111Y5230000D01*
X-23755555Y5182222D02*
X-23374444Y5182222D01*
X-22936111Y5230000D02*
X-23174444Y5230000D01*
X-23174444Y5730000D01*
X-22736111Y5491667D02*
X-22569444Y5491667D01*
X-22497778Y5230000D02*
X-22736111Y5230000D01*
X-22736111Y5730000D01*
X-22497778Y5730000D01*
X-22131111Y5491667D02*
X-22297778Y5491667D01*
X-22297778Y5230000D02*
X-22297778Y5730000D01*
X-22059445Y5730000D01*
X-21859445Y5730000D02*
X-21573889Y5730000D01*
X-21716667Y5230000D02*
X-21716667Y5730000D01*
D11*
G04 #@! TO.C,U_PRO_MICRO*
X-5213889Y13700000D02*
X-5213889Y12890000D01*
X-5166111Y12795556D01*
X-5118333Y12747778D01*
X-5023889Y12700000D01*
X-4832778Y12700000D01*
X-4737222Y12747778D01*
X-4690556Y12795556D01*
X-4642778Y12890000D01*
X-4642778Y13700000D01*
X-4242778Y12604444D02*
X-3480556Y12604444D01*
X-3080556Y12700000D02*
X-3080556Y13700000D01*
X-2699445Y13700000D01*
X-2603889Y13652222D01*
X-2557223Y13604444D01*
X-2509445Y13510000D01*
X-2509445Y13366667D01*
X-2557223Y13271111D01*
X-2603889Y13223333D01*
X-2699445Y13176667D01*
X-3080556Y13176667D01*
X-1538334Y12700000D02*
X-1871667Y13176667D01*
X-2109445Y12700000D02*
X-2109445Y13700000D01*
X-1728334Y13700000D01*
X-1632778Y13652222D01*
X-1586112Y13604444D01*
X-1538334Y13510000D01*
X-1538334Y13366667D01*
X-1586112Y13271111D01*
X-1632778Y13223333D01*
X-1728334Y13176667D01*
X-2109445Y13176667D01*
X-900556Y13700000D02*
X-709445Y13700000D01*
X-615001Y13652222D01*
X-519445Y13556667D01*
X-471667Y13366667D01*
X-471667Y13033333D01*
X-519445Y12843333D01*
X-615001Y12747778D01*
X-709445Y12700000D01*
X-900556Y12700000D01*
X-995001Y12747778D01*
X-1090556Y12843333D01*
X-1138334Y13033333D01*
X-1138334Y13366667D01*
X-1090556Y13556667D01*
X-995001Y13652222D01*
X-900556Y13700000D01*
X-71667Y12604444D02*
X690555Y12604444D01*
X1090555Y12700000D02*
X1090555Y13700000D01*
X1423888Y12985556D01*
X1757222Y13700000D01*
X1757222Y12700000D01*
X2157222Y12700000D02*
X2157222Y13700000D01*
X3176111Y12795556D02*
X3128333Y12747778D01*
X2986111Y12700000D01*
X2890555Y12700000D01*
X2747222Y12747778D01*
X2652778Y12843333D01*
X2605000Y12937778D01*
X2557222Y13128889D01*
X2557222Y13271111D01*
X2605000Y13462222D01*
X2652778Y13556667D01*
X2747222Y13652222D01*
X2890555Y13700000D01*
X2986111Y13700000D01*
X3128333Y13652222D01*
X3176111Y13604444D01*
X4147222Y12700000D02*
X3813889Y13176667D01*
X3576111Y12700000D02*
X3576111Y13700000D01*
X3957222Y13700000D01*
X4052778Y13652222D01*
X4099444Y13604444D01*
X4147222Y13510000D01*
X4147222Y13366667D01*
X4099444Y13271111D01*
X4052778Y13223333D01*
X3957222Y13176667D01*
X3576111Y13176667D01*
X4785000Y13700000D02*
X4976111Y13700000D01*
X5070555Y13652222D01*
X5166111Y13556667D01*
X5213889Y13366667D01*
X5213889Y13033333D01*
X5166111Y12843333D01*
X5070555Y12747778D01*
X4976111Y12700000D01*
X4785000Y12700000D01*
X4690555Y12747778D01*
X4595000Y12843333D01*
X4547222Y13033333D01*
X4547222Y13366667D01*
X4595000Y13556667D01*
X4690555Y13652222D01*
X4785000Y13700000D01*
D12*
G04 #@! TO.C,J_2WAY1*
X3175000Y-40910277D02*
X3532222Y-40910277D01*
X3603333Y-40934166D01*
X3651111Y-40981944D01*
X3675000Y-41053055D01*
X3675000Y-41100833D01*
X3722778Y-40710277D02*
X3722778Y-40329166D01*
X3222778Y-40105277D02*
X3198889Y-40081388D01*
X3175000Y-40034166D01*
X3175000Y-39914722D01*
X3198889Y-39867499D01*
X3222778Y-39843610D01*
X3270000Y-39819722D01*
X3317778Y-39819722D01*
X3389444Y-39843610D01*
X3675000Y-40129166D01*
X3675000Y-39819722D01*
X3175000Y-39619722D02*
X3675000Y-39500833D01*
X3317778Y-39405278D01*
X3675000Y-39310278D01*
X3175000Y-39191389D01*
X3532222Y-38943611D02*
X3532222Y-38705833D01*
X3675000Y-38991389D02*
X3175000Y-38824722D01*
X3675000Y-38658056D01*
X3436667Y-38291389D02*
X3675000Y-38291389D01*
X3175000Y-38458056D02*
X3436667Y-38291389D01*
X3175000Y-38124723D01*
X3675000Y-37639167D02*
X3675000Y-37924723D01*
X3675000Y-37781945D02*
X3175000Y-37781945D01*
X3246667Y-37829723D01*
X3293889Y-37876945D01*
X3317778Y-37924723D01*
G04 #@! TO.C,J_RIGHT*
X-27313333Y5715000D02*
X-27313333Y5357778D01*
X-27337222Y5286667D01*
X-27385000Y5238889D01*
X-27456111Y5215000D01*
X-27503889Y5215000D01*
X-27113333Y5167222D02*
X-26732222Y5167222D01*
X-26246666Y5215000D02*
X-26413333Y5453333D01*
X-26532222Y5215000D02*
X-26532222Y5715000D01*
X-26341666Y5715000D01*
X-26293889Y5691111D01*
X-26270555Y5667222D01*
X-26246666Y5620000D01*
X-26246666Y5548333D01*
X-26270555Y5500556D01*
X-26293889Y5476667D01*
X-26341666Y5453333D01*
X-26532222Y5453333D01*
X-26046666Y5215000D02*
X-26046666Y5715000D01*
X-25561110Y5691111D02*
X-25608333Y5715000D01*
X-25679999Y5715000D01*
X-25751666Y5691111D01*
X-25798888Y5643333D01*
X-25822777Y5596111D01*
X-25846666Y5500556D01*
X-25846666Y5429444D01*
X-25822777Y5333889D01*
X-25798888Y5286667D01*
X-25751666Y5238889D01*
X-25679999Y5215000D01*
X-25632222Y5215000D01*
X-25561110Y5238889D01*
X-25537222Y5262778D01*
X-25537222Y5429444D01*
X-25632222Y5429444D01*
X-25337222Y5215000D02*
X-25337222Y5715000D01*
X-25337222Y5476667D02*
X-25051666Y5476667D01*
X-25051666Y5215000D02*
X-25051666Y5715000D01*
X-24851666Y5715000D02*
X-24566110Y5715000D01*
X-24708888Y5215000D02*
X-24708888Y5715000D01*
G04 #@! TO.C,J_UP*
X-33065833Y5715000D02*
X-33065833Y5357778D01*
X-33089722Y5286667D01*
X-33137500Y5238889D01*
X-33208611Y5215000D01*
X-33256389Y5215000D01*
X-32865833Y5167222D02*
X-32484722Y5167222D01*
X-32284722Y5715000D02*
X-32284722Y5310000D01*
X-32260833Y5262778D01*
X-32236944Y5238889D01*
X-32189722Y5215000D01*
X-32094166Y5215000D01*
X-32046389Y5238889D01*
X-32023055Y5262778D01*
X-31999166Y5310000D01*
X-31999166Y5715000D01*
X-31799166Y5215000D02*
X-31799166Y5715000D01*
X-31608610Y5715000D01*
X-31560833Y5691111D01*
X-31537499Y5667222D01*
X-31513610Y5620000D01*
X-31513610Y5548333D01*
X-31537499Y5500556D01*
X-31560833Y5476667D01*
X-31608610Y5453333D01*
X-31799166Y5453333D01*
G04 #@! TO.C,J_SWITCHES2*
X-3017111Y-30315000D02*
X-3017111Y-30886556D01*
X-3055333Y-31000333D01*
X-3131778Y-31076778D01*
X-3245556Y-31115000D01*
X-3322000Y-31115000D01*
X-2757111Y-31191444D02*
X-2147333Y-31191444D01*
X-1887333Y-31076778D02*
X-1772666Y-31115000D01*
X-1582444Y-31115000D01*
X-1506000Y-31076778D01*
X-1468666Y-31038556D01*
X-1430444Y-30963000D01*
X-1430444Y-30886556D01*
X-1468666Y-30810111D01*
X-1506000Y-30771889D01*
X-1582444Y-30733667D01*
X-1735333Y-30696333D01*
X-1810889Y-30658111D01*
X-1849111Y-30619889D01*
X-1887333Y-30543444D01*
X-1887333Y-30467000D01*
X-1849111Y-30391444D01*
X-1810889Y-30353222D01*
X-1735333Y-30315000D01*
X-1544222Y-30315000D01*
X-1430444Y-30353222D01*
X-1170444Y-30315000D02*
X-980222Y-31115000D01*
X-827333Y-30543444D01*
X-675333Y-31115000D01*
X-485111Y-30315000D01*
X-225111Y-31115000D02*
X-225111Y-30315000D01*
X34889Y-30315000D02*
X491778Y-30315000D01*
X263333Y-31115000D02*
X263333Y-30315000D01*
X1246889Y-31038556D02*
X1208667Y-31076778D01*
X1094889Y-31115000D01*
X1018445Y-31115000D01*
X903778Y-31076778D01*
X828222Y-31000333D01*
X790000Y-30924778D01*
X751778Y-30771889D01*
X751778Y-30658111D01*
X790000Y-30505222D01*
X828222Y-30429667D01*
X903778Y-30353222D01*
X1018445Y-30315000D01*
X1094889Y-30315000D01*
X1208667Y-30353222D01*
X1246889Y-30391444D01*
X1506889Y-31115000D02*
X1506889Y-30315000D01*
X1506889Y-30696333D02*
X1963778Y-30696333D01*
X1963778Y-31115000D02*
X1963778Y-30315000D01*
X2223778Y-30696333D02*
X2490445Y-30696333D01*
X2605111Y-31115000D02*
X2223778Y-31115000D01*
X2223778Y-30315000D01*
X2605111Y-30315000D01*
X2865111Y-31076778D02*
X2979778Y-31115000D01*
X3170000Y-31115000D01*
X3246444Y-31076778D01*
X3283778Y-31038556D01*
X3322000Y-30963000D01*
X3322000Y-30886556D01*
X3283778Y-30810111D01*
X3246444Y-30771889D01*
X3170000Y-30733667D01*
X3017111Y-30696333D01*
X2941555Y-30658111D01*
X2903333Y-30619889D01*
X2865111Y-30543444D01*
X2865111Y-30467000D01*
X2903333Y-30391444D01*
X2941555Y-30353222D01*
X3017111Y-30315000D01*
X3208222Y-30315000D01*
X3322000Y-30353222D01*
D11*
G04 #@! TO.C,J_SWITCHES*
X-4108889Y-20590000D02*
X-4108889Y-21304444D01*
X-4156667Y-21446667D01*
X-4252222Y-21542222D01*
X-4394444Y-21590000D01*
X-4490000Y-21590000D01*
X-3708889Y-21685556D02*
X-2946667Y-21685556D01*
X-2546667Y-21542222D02*
X-2403334Y-21590000D01*
X-2165556Y-21590000D01*
X-2070000Y-21542222D01*
X-2023334Y-21494444D01*
X-1975556Y-21400000D01*
X-1975556Y-21304444D01*
X-2023334Y-21208889D01*
X-2070000Y-21161111D01*
X-2165556Y-21113333D01*
X-2356667Y-21066667D01*
X-2451111Y-21018889D01*
X-2498889Y-20971111D01*
X-2546667Y-20875556D01*
X-2546667Y-20780000D01*
X-2498889Y-20685556D01*
X-2451111Y-20637778D01*
X-2356667Y-20590000D01*
X-2117778Y-20590000D01*
X-1975556Y-20637778D01*
X-1575556Y-20590000D02*
X-1337778Y-21590000D01*
X-1146667Y-20875556D01*
X-956667Y-21590000D01*
X-718889Y-20590000D01*
X-318889Y-21590000D02*
X-318889Y-20590000D01*
X81111Y-20590000D02*
X652222Y-20590000D01*
X366667Y-21590000D02*
X366667Y-20590000D01*
X1671111Y-21494444D02*
X1623333Y-21542222D01*
X1481111Y-21590000D01*
X1385555Y-21590000D01*
X1242222Y-21542222D01*
X1147778Y-21446667D01*
X1100000Y-21352222D01*
X1052222Y-21161111D01*
X1052222Y-21018889D01*
X1100000Y-20827778D01*
X1147778Y-20733333D01*
X1242222Y-20637778D01*
X1385555Y-20590000D01*
X1481111Y-20590000D01*
X1623333Y-20637778D01*
X1671111Y-20685556D01*
X2071111Y-21590000D02*
X2071111Y-20590000D01*
X2071111Y-21066667D02*
X2642222Y-21066667D01*
X2642222Y-21590000D02*
X2642222Y-20590000D01*
X3042222Y-21066667D02*
X3375555Y-21066667D01*
X3518889Y-21590000D02*
X3042222Y-21590000D01*
X3042222Y-20590000D01*
X3518889Y-20590000D01*
X3918889Y-21542222D02*
X4062222Y-21590000D01*
X4300000Y-21590000D01*
X4395556Y-21542222D01*
X4442222Y-21494444D01*
X4490000Y-21400000D01*
X4490000Y-21304444D01*
X4442222Y-21208889D01*
X4395556Y-21161111D01*
X4300000Y-21113333D01*
X4108889Y-21066667D01*
X4014445Y-21018889D01*
X3966667Y-20971111D01*
X3918889Y-20875556D01*
X3918889Y-20780000D01*
X3966667Y-20685556D01*
X4014445Y-20637778D01*
X4108889Y-20590000D01*
X4347778Y-20590000D01*
X4490000Y-20637778D01*
D12*
G04 #@! TO.C,J_HAT2*
X-20820000Y702778D02*
X-20462778Y702778D01*
X-20391667Y678889D01*
X-20343889Y631111D01*
X-20320000Y560000D01*
X-20320000Y512222D01*
X-20272222Y902778D02*
X-20272222Y1283889D01*
X-20320000Y1483889D02*
X-20820000Y1483889D01*
X-20581667Y1483889D02*
X-20581667Y1769445D01*
X-20320000Y1769445D02*
X-20820000Y1769445D01*
X-20462778Y2017223D02*
X-20462778Y2255001D01*
X-20320000Y1969445D02*
X-20820000Y2136112D01*
X-20320000Y2302778D01*
X-20820000Y2502778D02*
X-20820000Y2788334D01*
X-20320000Y2645556D02*
X-20820000Y2645556D01*
X-20772222Y3012223D02*
X-20796111Y3036112D01*
X-20820000Y3083334D01*
X-20820000Y3202778D01*
X-20796111Y3250001D01*
X-20772222Y3273890D01*
X-20725000Y3297778D01*
X-20677222Y3297778D01*
X-20605556Y3273890D01*
X-20320000Y2988334D01*
X-20320000Y3297778D01*
G04 #@! TD*
X7755000Y-48895000D02*
X7755000Y-48323889D01*
X8755000Y-48609444D02*
X7755000Y-48609444D01*
X8755000Y-48023889D02*
X7755000Y-48023889D01*
X8231667Y-48023889D02*
X8231667Y-47452778D01*
X8755000Y-47452778D02*
X7755000Y-47452778D01*
X8850556Y-46438334D02*
X8802778Y-46533889D01*
X8707222Y-46629445D01*
X8565000Y-46771667D01*
X8517222Y-46867222D01*
X8517222Y-46962778D01*
X8755000Y-46915000D02*
X8707222Y-47009445D01*
X8611667Y-47105000D01*
X8421667Y-47152778D01*
X8088333Y-47152778D01*
X7898333Y-47105000D01*
X7802778Y-47009445D01*
X7755000Y-46915000D01*
X7755000Y-46723889D01*
X7802778Y-46629445D01*
X7898333Y-46533889D01*
X8088333Y-46486111D01*
X8421667Y-46486111D01*
X8611667Y-46533889D01*
X8707222Y-46629445D01*
X8755000Y-46723889D01*
X8755000Y-46915000D01*
X8755000Y-45567223D02*
X8278333Y-45900556D01*
X8755000Y-46138334D02*
X7755000Y-46138334D01*
X7755000Y-45757223D01*
X7802778Y-45661667D01*
X7850556Y-45615001D01*
X7945000Y-45567223D01*
X8088333Y-45567223D01*
X8183889Y-45615001D01*
X8231667Y-45661667D01*
X8278333Y-45757223D01*
X8278333Y-46138334D01*
X8755000Y-45219445D02*
X8088333Y-45219445D01*
X7755000Y-45219445D02*
X7802778Y-45267223D01*
X7850556Y-45219445D01*
X7802778Y-45171667D01*
X7755000Y-45219445D01*
X7850556Y-45219445D01*
X8088333Y-44395000D02*
X8898333Y-44395000D01*
X8992778Y-44442778D01*
X9040556Y-44490556D01*
X9088333Y-44586111D01*
X9088333Y-44728334D01*
X9040556Y-44823889D01*
X8707222Y-44395000D02*
X8755000Y-44490556D01*
X8755000Y-44681667D01*
X8707222Y-44776111D01*
X8659444Y-44823889D01*
X8565000Y-44871667D01*
X8278333Y-44871667D01*
X8183889Y-44823889D01*
X8136111Y-44776111D01*
X8088333Y-44681667D01*
X8088333Y-44490556D01*
X8136111Y-44395000D01*
X8755000Y-44095000D02*
X7755000Y-44095000D01*
X8755000Y-43666111D02*
X8231667Y-43666111D01*
X8136111Y-43713889D01*
X8088333Y-43809444D01*
X8088333Y-43951667D01*
X8136111Y-44047222D01*
X8183889Y-44095000D01*
X8088333Y-43366111D02*
X8088333Y-42985000D01*
X7755000Y-43222778D02*
X8611667Y-43222778D01*
X8707222Y-43176111D01*
X8755000Y-43080555D01*
X8755000Y-42985000D01*
X7755000Y-42685000D02*
X7755000Y-42113889D01*
X8755000Y-42399444D02*
X7755000Y-42399444D01*
X8755000Y-41813889D02*
X7755000Y-41813889D01*
X8755000Y-41385000D02*
X8231667Y-41385000D01*
X8136111Y-41432778D01*
X8088333Y-41528333D01*
X8088333Y-41670556D01*
X8136111Y-41766111D01*
X8183889Y-41813889D01*
X8755000Y-41085000D02*
X8088333Y-41085000D01*
X8278333Y-41085000D02*
X8183889Y-41037222D01*
X8136111Y-40989444D01*
X8088333Y-40895000D01*
X8088333Y-40799444D01*
X8755000Y-40309444D02*
X8707222Y-40403888D01*
X8659444Y-40451666D01*
X8565000Y-40499444D01*
X8278333Y-40499444D01*
X8183889Y-40451666D01*
X8136111Y-40403888D01*
X8088333Y-40309444D01*
X8088333Y-40166111D01*
X8136111Y-40070555D01*
X8183889Y-40022777D01*
X8278333Y-39976111D01*
X8565000Y-39976111D01*
X8659444Y-40022777D01*
X8707222Y-40070555D01*
X8755000Y-40166111D01*
X8755000Y-40309444D01*
X8088333Y-39676111D02*
X8088333Y-39295000D01*
X7755000Y-39532778D02*
X8611667Y-39532778D01*
X8707222Y-39486111D01*
X8755000Y-39390555D01*
X8755000Y-39295000D01*
X8088333Y-38995000D02*
X8088333Y-38613889D01*
X7755000Y-38851667D02*
X8611667Y-38851667D01*
X8707222Y-38805000D01*
X8755000Y-38709444D01*
X8755000Y-38613889D01*
X8755000Y-38170556D02*
X8707222Y-38266111D01*
X8611667Y-38313889D01*
X7755000Y-38313889D01*
X8707222Y-37441667D02*
X8755000Y-37537223D01*
X8755000Y-37727223D01*
X8707222Y-37822778D01*
X8611667Y-37870556D01*
X8231667Y-37870556D01*
X8136111Y-37822778D01*
X8088333Y-37727223D01*
X8088333Y-37537223D01*
X8136111Y-37441667D01*
X8231667Y-37393889D01*
X8326111Y-37393889D01*
X8421667Y-37870556D01*
X-12655000Y-21351664D02*
X-13155000Y-21351664D01*
X-12797778Y-21184997D01*
X-13155000Y-21018331D01*
X-12655000Y-21018331D01*
X-12655000Y-20579998D02*
X-12916667Y-20579998D01*
X-12964444Y-20603887D01*
X-12988333Y-20651664D01*
X-12988333Y-20746664D01*
X-12964444Y-20794442D01*
X-12678889Y-20579998D02*
X-12655000Y-20627775D01*
X-12655000Y-20746664D01*
X-12678889Y-20794442D01*
X-12726667Y-20818331D01*
X-12773889Y-20818331D01*
X-12821667Y-20794442D01*
X-12845556Y-20746664D01*
X-12845556Y-20627775D01*
X-12869444Y-20579998D01*
X-12655000Y-20356109D02*
X-12988333Y-20356109D01*
X-13155000Y-20356109D02*
X-13131111Y-20379998D01*
X-13107222Y-20356109D01*
X-13131111Y-20332220D01*
X-13155000Y-20356109D01*
X-13107222Y-20356109D01*
X-12988333Y-20132220D02*
X-12655000Y-20132220D01*
X-12940556Y-20132220D02*
X-12964444Y-20108331D01*
X-12988333Y-20060553D01*
X-12988333Y-19989442D01*
X-12964444Y-19941664D01*
X-12916667Y-19917776D01*
X-12655000Y-19917776D01*
X-12916667Y-19151110D02*
X-12893333Y-19079444D01*
X-12869444Y-19056110D01*
X-12821667Y-19032221D01*
X-12750000Y-19032221D01*
X-12702778Y-19056110D01*
X-12678889Y-19079444D01*
X-12655000Y-19127221D01*
X-12655000Y-19317777D01*
X-13155000Y-19317777D01*
X-13155000Y-19151110D01*
X-13131111Y-19103333D01*
X-13107222Y-19079444D01*
X-13060000Y-19056110D01*
X-13012222Y-19056110D01*
X-12964444Y-19079444D01*
X-12940556Y-19103333D01*
X-12916667Y-19151110D01*
X-12916667Y-19317777D01*
X-12655000Y-18737221D02*
X-12678889Y-18784443D01*
X-12702778Y-18808332D01*
X-12750000Y-18832221D01*
X-12893333Y-18832221D01*
X-12940556Y-18808332D01*
X-12964444Y-18784443D01*
X-12988333Y-18737221D01*
X-12988333Y-18665554D01*
X-12964444Y-18617777D01*
X-12940556Y-18593888D01*
X-12893333Y-18570554D01*
X-12750000Y-18570554D01*
X-12702778Y-18593888D01*
X-12678889Y-18617777D01*
X-12655000Y-18665554D01*
X-12655000Y-18737221D01*
X-12655000Y-18132221D02*
X-12916667Y-18132221D01*
X-12964444Y-18156110D01*
X-12988333Y-18203887D01*
X-12988333Y-18298887D01*
X-12964444Y-18346665D01*
X-12678889Y-18132221D02*
X-12655000Y-18179998D01*
X-12655000Y-18298887D01*
X-12678889Y-18346665D01*
X-12726667Y-18370554D01*
X-12773889Y-18370554D01*
X-12821667Y-18346665D01*
X-12845556Y-18298887D01*
X-12845556Y-18179998D01*
X-12869444Y-18132221D01*
X-12655000Y-17932221D02*
X-12988333Y-17932221D01*
X-12893333Y-17932221D02*
X-12940556Y-17908332D01*
X-12964444Y-17884443D01*
X-12988333Y-17837221D01*
X-12988333Y-17789443D01*
X-12655000Y-17351110D02*
X-13155000Y-17351110D01*
X-12678889Y-17351110D02*
X-12655000Y-17398887D01*
X-12655000Y-17494443D01*
X-12678889Y-17541665D01*
X-12702778Y-17565554D01*
X-12750000Y-17589443D01*
X-12893333Y-17589443D01*
X-12940556Y-17565554D01*
X-12964444Y-17541665D01*
X-12988333Y-17494443D01*
X-12988333Y-17398887D01*
X-12964444Y-17351110D01*
X-12655000Y-16465555D02*
X-12893333Y-16632222D01*
X-12655000Y-16751111D02*
X-13155000Y-16751111D01*
X-13155000Y-16560555D01*
X-13131111Y-16512778D01*
X-13107222Y-16489444D01*
X-13060000Y-16465555D01*
X-12988333Y-16465555D01*
X-12940556Y-16489444D01*
X-12916667Y-16512778D01*
X-12893333Y-16560555D01*
X-12893333Y-16751111D01*
X-12678889Y-16051111D02*
X-12655000Y-16098888D01*
X-12655000Y-16193888D01*
X-12678889Y-16241666D01*
X-12726667Y-16265555D01*
X-12916667Y-16265555D01*
X-12964444Y-16241666D01*
X-12988333Y-16193888D01*
X-12988333Y-16098888D01*
X-12964444Y-16051111D01*
X-12916667Y-16027222D01*
X-12869444Y-16027222D01*
X-12821667Y-16265555D01*
X-12988333Y-15827222D02*
X-12655000Y-15708333D01*
X-12988333Y-15588889D01*
X-12655000Y-14703334D02*
X-12655000Y-14988890D01*
X-12655000Y-14846112D02*
X-13155000Y-14846112D01*
X-13083333Y-14893890D01*
X-13036111Y-14941112D01*
X-13012222Y-14988890D01*
X-12702778Y-14479445D02*
X-12678889Y-14455556D01*
X-12655000Y-14479445D01*
X-12678889Y-14503334D01*
X-12702778Y-14479445D01*
X-12655000Y-14479445D01*
X-13155000Y-14136667D02*
X-13155000Y-14088889D01*
X-13131111Y-14041112D01*
X-13107222Y-14017223D01*
X-13060000Y-13993889D01*
X-12964444Y-13970000D01*
X-12845556Y-13970000D01*
X-12750000Y-13993889D01*
X-12702778Y-14017223D01*
X-12678889Y-14041112D01*
X-12655000Y-14088889D01*
X-12655000Y-14136667D01*
X-12678889Y-14183889D01*
X-12702778Y-14207778D01*
X-12750000Y-14231667D01*
X-12845556Y-14255556D01*
X-12964444Y-14255556D01*
X-13060000Y-14231667D01*
X-13107222Y-14207778D01*
X-13131111Y-14183889D01*
X-13155000Y-14136667D01*
X-34367221Y-4680000D02*
X-34367221Y-4180000D01*
X-34367221Y-4418333D02*
X-34081665Y-4418333D01*
X-34081665Y-4680000D02*
X-34081665Y-4180000D01*
X-33643332Y-4680000D02*
X-33643332Y-4418333D01*
X-33667221Y-4370556D01*
X-33714998Y-4346667D01*
X-33809998Y-4346667D01*
X-33857776Y-4370556D01*
X-33643332Y-4656111D02*
X-33691109Y-4680000D01*
X-33809998Y-4680000D01*
X-33857776Y-4656111D01*
X-33881665Y-4608333D01*
X-33881665Y-4561111D01*
X-33857776Y-4513333D01*
X-33809998Y-4489444D01*
X-33691109Y-4489444D01*
X-33643332Y-4465556D01*
X-33443332Y-4346667D02*
X-33252776Y-4346667D01*
X-33371665Y-4180000D02*
X-33371665Y-4608333D01*
X-33348332Y-4656111D01*
X-33300554Y-4680000D01*
X-33252776Y-4680000D01*
X-32486110Y-4418333D02*
X-32414444Y-4441667D01*
X-32391110Y-4465556D01*
X-32367221Y-4513333D01*
X-32367221Y-4585000D01*
X-32391110Y-4632222D01*
X-32414444Y-4656111D01*
X-32462221Y-4680000D01*
X-32652777Y-4680000D01*
X-32652777Y-4180000D01*
X-32486110Y-4180000D01*
X-32438333Y-4203889D01*
X-32414444Y-4227778D01*
X-32391110Y-4275000D01*
X-32391110Y-4322778D01*
X-32414444Y-4370556D01*
X-32438333Y-4394444D01*
X-32486110Y-4418333D01*
X-32652777Y-4418333D01*
X-32072221Y-4680000D02*
X-32119443Y-4656111D01*
X-32143332Y-4632222D01*
X-32167221Y-4585000D01*
X-32167221Y-4441667D01*
X-32143332Y-4394444D01*
X-32119443Y-4370556D01*
X-32072221Y-4346667D01*
X-32000554Y-4346667D01*
X-31952777Y-4370556D01*
X-31928888Y-4394444D01*
X-31905554Y-4441667D01*
X-31905554Y-4585000D01*
X-31928888Y-4632222D01*
X-31952777Y-4656111D01*
X-32000554Y-4680000D01*
X-32072221Y-4680000D01*
X-31467221Y-4680000D02*
X-31467221Y-4418333D01*
X-31491110Y-4370556D01*
X-31538887Y-4346667D01*
X-31633887Y-4346667D01*
X-31681665Y-4370556D01*
X-31467221Y-4656111D02*
X-31514998Y-4680000D01*
X-31633887Y-4680000D01*
X-31681665Y-4656111D01*
X-31705554Y-4608333D01*
X-31705554Y-4561111D01*
X-31681665Y-4513333D01*
X-31633887Y-4489444D01*
X-31514998Y-4489444D01*
X-31467221Y-4465556D01*
X-31267221Y-4680000D02*
X-31267221Y-4346667D01*
X-31267221Y-4441667D02*
X-31243332Y-4394444D01*
X-31219443Y-4370556D01*
X-31172221Y-4346667D01*
X-31124443Y-4346667D01*
X-30686110Y-4680000D02*
X-30686110Y-4180000D01*
X-30686110Y-4656111D02*
X-30733887Y-4680000D01*
X-30829443Y-4680000D01*
X-30876665Y-4656111D01*
X-30900554Y-4632222D01*
X-30924443Y-4585000D01*
X-30924443Y-4441667D01*
X-30900554Y-4394444D01*
X-30876665Y-4370556D01*
X-30829443Y-4346667D01*
X-30733887Y-4346667D01*
X-30686110Y-4370556D01*
X-29800555Y-4680000D02*
X-29967222Y-4441667D01*
X-30086111Y-4680000D02*
X-30086111Y-4180000D01*
X-29895555Y-4180000D01*
X-29847778Y-4203889D01*
X-29824444Y-4227778D01*
X-29800555Y-4275000D01*
X-29800555Y-4346667D01*
X-29824444Y-4394444D01*
X-29847778Y-4418333D01*
X-29895555Y-4441667D01*
X-30086111Y-4441667D01*
X-29386111Y-4656111D02*
X-29433888Y-4680000D01*
X-29528888Y-4680000D01*
X-29576666Y-4656111D01*
X-29600555Y-4608333D01*
X-29600555Y-4418333D01*
X-29576666Y-4370556D01*
X-29528888Y-4346667D01*
X-29433888Y-4346667D01*
X-29386111Y-4370556D01*
X-29362222Y-4418333D01*
X-29362222Y-4465556D01*
X-29600555Y-4513333D01*
X-29162222Y-4346667D02*
X-29043333Y-4680000D01*
X-28923889Y-4346667D01*
X-28038334Y-4680000D02*
X-28323890Y-4680000D01*
X-28181112Y-4680000D02*
X-28181112Y-4180000D01*
X-28228890Y-4251667D01*
X-28276112Y-4298889D01*
X-28323890Y-4322778D01*
X-27814445Y-4632222D02*
X-27790556Y-4656111D01*
X-27814445Y-4680000D01*
X-27838334Y-4656111D01*
X-27814445Y-4632222D01*
X-27814445Y-4680000D01*
X-27471667Y-4180000D02*
X-27423889Y-4180000D01*
X-27376112Y-4203889D01*
X-27352223Y-4227778D01*
X-27328889Y-4275000D01*
X-27305000Y-4370556D01*
X-27305000Y-4489444D01*
X-27328889Y-4585000D01*
X-27352223Y-4632222D01*
X-27376112Y-4656111D01*
X-27423889Y-4680000D01*
X-27471667Y-4680000D01*
X-27518889Y-4656111D01*
X-27542778Y-4632222D01*
X-27566667Y-4585000D01*
X-27590556Y-4489444D01*
X-27590556Y-4370556D01*
X-27566667Y-4275000D01*
X-27542778Y-4227778D01*
X-27518889Y-4203889D01*
X-27471667Y-4180000D01*
X9751111Y-46623331D02*
X9775000Y-46551664D01*
X9775000Y-46432775D01*
X9751111Y-46384998D01*
X9727222Y-46361664D01*
X9680000Y-46337775D01*
X9632222Y-46337775D01*
X9584444Y-46361664D01*
X9560556Y-46384998D01*
X9536667Y-46432775D01*
X9513333Y-46528331D01*
X9489444Y-46575553D01*
X9465556Y-46599442D01*
X9417778Y-46623331D01*
X9370000Y-46623331D01*
X9322778Y-46599442D01*
X9298889Y-46575553D01*
X9275000Y-46528331D01*
X9275000Y-46408887D01*
X9298889Y-46337775D01*
X9441667Y-46137775D02*
X9775000Y-46042775D01*
X9536667Y-45947219D01*
X9775000Y-45852219D01*
X9441667Y-45756664D01*
X9775000Y-45532775D02*
X9441667Y-45532775D01*
X9275000Y-45532775D02*
X9298889Y-45556664D01*
X9322778Y-45532775D01*
X9298889Y-45508886D01*
X9275000Y-45532775D01*
X9322778Y-45532775D01*
X9441667Y-45308886D02*
X9441667Y-45118330D01*
X9275000Y-45237219D02*
X9703333Y-45237219D01*
X9751111Y-45213886D01*
X9775000Y-45166108D01*
X9775000Y-45118330D01*
X9751111Y-44679997D02*
X9775000Y-44727774D01*
X9775000Y-44823330D01*
X9751111Y-44870552D01*
X9727222Y-44894441D01*
X9680000Y-44918330D01*
X9536667Y-44918330D01*
X9489444Y-44894441D01*
X9465556Y-44870552D01*
X9441667Y-44823330D01*
X9441667Y-44727774D01*
X9465556Y-44679997D01*
X9775000Y-44479997D02*
X9275000Y-44479997D01*
X9775000Y-44265553D02*
X9513333Y-44265553D01*
X9465556Y-44289441D01*
X9441667Y-44337219D01*
X9441667Y-44408330D01*
X9465556Y-44456108D01*
X9489444Y-44479997D01*
X9751111Y-43851109D02*
X9775000Y-43898886D01*
X9775000Y-43993886D01*
X9751111Y-44041664D01*
X9703333Y-44065553D01*
X9513333Y-44065553D01*
X9465556Y-44041664D01*
X9441667Y-43993886D01*
X9441667Y-43898886D01*
X9465556Y-43851109D01*
X9513333Y-43827220D01*
X9560556Y-43827220D01*
X9608333Y-44065553D01*
X9751111Y-43627220D02*
X9775000Y-43579442D01*
X9775000Y-43484442D01*
X9751111Y-43436664D01*
X9703333Y-43412776D01*
X9680000Y-43412776D01*
X9632222Y-43436664D01*
X9608333Y-43484442D01*
X9608333Y-43555553D01*
X9584444Y-43603331D01*
X9536667Y-43627220D01*
X9513333Y-43627220D01*
X9465556Y-43603331D01*
X9441667Y-43555553D01*
X9441667Y-43484442D01*
X9465556Y-43436664D01*
X9513333Y-42646110D02*
X9536667Y-42574444D01*
X9560556Y-42551110D01*
X9608333Y-42527221D01*
X9680000Y-42527221D01*
X9727222Y-42551110D01*
X9751111Y-42574444D01*
X9775000Y-42622221D01*
X9775000Y-42812777D01*
X9275000Y-42812777D01*
X9275000Y-42646110D01*
X9298889Y-42598333D01*
X9322778Y-42574444D01*
X9370000Y-42551110D01*
X9417778Y-42551110D01*
X9465556Y-42574444D01*
X9489444Y-42598333D01*
X9513333Y-42646110D01*
X9513333Y-42812777D01*
X9775000Y-42232221D02*
X9751111Y-42279443D01*
X9727222Y-42303332D01*
X9680000Y-42327221D01*
X9536667Y-42327221D01*
X9489444Y-42303332D01*
X9465556Y-42279443D01*
X9441667Y-42232221D01*
X9441667Y-42160554D01*
X9465556Y-42112777D01*
X9489444Y-42088888D01*
X9536667Y-42065554D01*
X9680000Y-42065554D01*
X9727222Y-42088888D01*
X9751111Y-42112777D01*
X9775000Y-42160554D01*
X9775000Y-42232221D01*
X9775000Y-41627221D02*
X9513333Y-41627221D01*
X9465556Y-41651110D01*
X9441667Y-41698887D01*
X9441667Y-41793887D01*
X9465556Y-41841665D01*
X9751111Y-41627221D02*
X9775000Y-41674998D01*
X9775000Y-41793887D01*
X9751111Y-41841665D01*
X9703333Y-41865554D01*
X9656111Y-41865554D01*
X9608333Y-41841665D01*
X9584444Y-41793887D01*
X9584444Y-41674998D01*
X9560556Y-41627221D01*
X9775000Y-41427221D02*
X9441667Y-41427221D01*
X9536667Y-41427221D02*
X9489444Y-41403332D01*
X9465556Y-41379443D01*
X9441667Y-41332221D01*
X9441667Y-41284443D01*
X9775000Y-40846110D02*
X9275000Y-40846110D01*
X9751111Y-40846110D02*
X9775000Y-40893887D01*
X9775000Y-40989443D01*
X9751111Y-41036665D01*
X9727222Y-41060554D01*
X9680000Y-41084443D01*
X9536667Y-41084443D01*
X9489444Y-41060554D01*
X9465556Y-41036665D01*
X9441667Y-40989443D01*
X9441667Y-40893887D01*
X9465556Y-40846110D01*
X9775000Y-39960555D02*
X9536667Y-40127222D01*
X9775000Y-40246111D02*
X9275000Y-40246111D01*
X9275000Y-40055555D01*
X9298889Y-40007778D01*
X9322778Y-39984444D01*
X9370000Y-39960555D01*
X9441667Y-39960555D01*
X9489444Y-39984444D01*
X9513333Y-40007778D01*
X9536667Y-40055555D01*
X9536667Y-40246111D01*
X9751111Y-39546111D02*
X9775000Y-39593888D01*
X9775000Y-39688888D01*
X9751111Y-39736666D01*
X9703333Y-39760555D01*
X9513333Y-39760555D01*
X9465556Y-39736666D01*
X9441667Y-39688888D01*
X9441667Y-39593888D01*
X9465556Y-39546111D01*
X9513333Y-39522222D01*
X9560556Y-39522222D01*
X9608333Y-39760555D01*
X9441667Y-39322222D02*
X9775000Y-39203333D01*
X9441667Y-39083889D01*
X9775000Y-38198334D02*
X9775000Y-38483890D01*
X9775000Y-38341112D02*
X9275000Y-38341112D01*
X9346667Y-38388890D01*
X9393889Y-38436112D01*
X9417778Y-38483890D01*
X9727222Y-37974445D02*
X9751111Y-37950556D01*
X9775000Y-37974445D01*
X9751111Y-37998334D01*
X9727222Y-37974445D01*
X9775000Y-37974445D01*
X9275000Y-37631667D02*
X9275000Y-37583889D01*
X9298889Y-37536112D01*
X9322778Y-37512223D01*
X9370000Y-37488889D01*
X9465556Y-37465000D01*
X9584444Y-37465000D01*
X9680000Y-37488889D01*
X9727222Y-37512223D01*
X9751111Y-37536112D01*
X9775000Y-37583889D01*
X9775000Y-37631667D01*
X9751111Y-37678889D01*
X9727222Y-37702778D01*
X9680000Y-37726667D01*
X9584444Y-37750556D01*
X9465556Y-37750556D01*
X9370000Y-37726667D01*
X9322778Y-37702778D01*
X9298889Y-37678889D01*
X9275000Y-37631667D01*
X-14970000Y-25400000D02*
X-14970000Y-24828889D01*
X-13970000Y-25114444D02*
X-14970000Y-25114444D01*
X-13970000Y-24528889D02*
X-14970000Y-24528889D01*
X-14493333Y-24528889D02*
X-14493333Y-23957778D01*
X-13970000Y-23957778D02*
X-14970000Y-23957778D01*
X-13874444Y-22943334D02*
X-13922222Y-23038889D01*
X-14017778Y-23134445D01*
X-14160000Y-23276667D01*
X-14207778Y-23372222D01*
X-14207778Y-23467778D01*
X-13970000Y-23420000D02*
X-14017778Y-23514445D01*
X-14113333Y-23610000D01*
X-14303333Y-23657778D01*
X-14636667Y-23657778D01*
X-14826667Y-23610000D01*
X-14922222Y-23514445D01*
X-14970000Y-23420000D01*
X-14970000Y-23228889D01*
X-14922222Y-23134445D01*
X-14826667Y-23038889D01*
X-14636667Y-22991111D01*
X-14303333Y-22991111D01*
X-14113333Y-23038889D01*
X-14017778Y-23134445D01*
X-13970000Y-23228889D01*
X-13970000Y-23420000D01*
X-13970000Y-22072223D02*
X-14446667Y-22405556D01*
X-13970000Y-22643334D02*
X-14970000Y-22643334D01*
X-14970000Y-22262223D01*
X-14922222Y-22166667D01*
X-14874444Y-22120001D01*
X-14780000Y-22072223D01*
X-14636667Y-22072223D01*
X-14541111Y-22120001D01*
X-14493333Y-22166667D01*
X-14446667Y-22262223D01*
X-14446667Y-22643334D01*
X-13970000Y-21724445D02*
X-14636667Y-21724445D01*
X-14970000Y-21724445D02*
X-14922222Y-21772223D01*
X-14874444Y-21724445D01*
X-14922222Y-21676667D01*
X-14970000Y-21724445D01*
X-14874444Y-21724445D01*
X-14636667Y-20900000D02*
X-13826667Y-20900000D01*
X-13732222Y-20947778D01*
X-13684444Y-20995556D01*
X-13636667Y-21091111D01*
X-13636667Y-21233334D01*
X-13684444Y-21328889D01*
X-14017778Y-20900000D02*
X-13970000Y-20995556D01*
X-13970000Y-21186667D01*
X-14017778Y-21281111D01*
X-14065556Y-21328889D01*
X-14160000Y-21376667D01*
X-14446667Y-21376667D01*
X-14541111Y-21328889D01*
X-14588889Y-21281111D01*
X-14636667Y-21186667D01*
X-14636667Y-20995556D01*
X-14588889Y-20900000D01*
X-13970000Y-20600000D02*
X-14970000Y-20600000D01*
X-13970000Y-20171111D02*
X-14493333Y-20171111D01*
X-14588889Y-20218889D01*
X-14636667Y-20314444D01*
X-14636667Y-20456667D01*
X-14588889Y-20552222D01*
X-14541111Y-20600000D01*
X-14636667Y-19871111D02*
X-14636667Y-19490000D01*
X-14970000Y-19727778D02*
X-14113333Y-19727778D01*
X-14017778Y-19681111D01*
X-13970000Y-19585555D01*
X-13970000Y-19490000D01*
X-14970000Y-19190000D02*
X-14970000Y-18618889D01*
X-13970000Y-18904444D02*
X-14970000Y-18904444D01*
X-13970000Y-18318889D02*
X-14970000Y-18318889D01*
X-13970000Y-17890000D02*
X-14493333Y-17890000D01*
X-14588889Y-17937778D01*
X-14636667Y-18033333D01*
X-14636667Y-18175556D01*
X-14588889Y-18271111D01*
X-14541111Y-18318889D01*
X-13970000Y-17590000D02*
X-14636667Y-17590000D01*
X-14446667Y-17590000D02*
X-14541111Y-17542222D01*
X-14588889Y-17494444D01*
X-14636667Y-17400000D01*
X-14636667Y-17304444D01*
X-13970000Y-16814444D02*
X-14017778Y-16908888D01*
X-14065556Y-16956666D01*
X-14160000Y-17004444D01*
X-14446667Y-17004444D01*
X-14541111Y-16956666D01*
X-14588889Y-16908888D01*
X-14636667Y-16814444D01*
X-14636667Y-16671111D01*
X-14588889Y-16575555D01*
X-14541111Y-16527777D01*
X-14446667Y-16481111D01*
X-14160000Y-16481111D01*
X-14065556Y-16527777D01*
X-14017778Y-16575555D01*
X-13970000Y-16671111D01*
X-13970000Y-16814444D01*
X-14636667Y-16181111D02*
X-14636667Y-15800000D01*
X-14970000Y-16037778D02*
X-14113333Y-16037778D01*
X-14017778Y-15991111D01*
X-13970000Y-15895555D01*
X-13970000Y-15800000D01*
X-14636667Y-15500000D02*
X-14636667Y-15118889D01*
X-14970000Y-15356667D02*
X-14113333Y-15356667D01*
X-14017778Y-15310000D01*
X-13970000Y-15214444D01*
X-13970000Y-15118889D01*
X-13970000Y-14675556D02*
X-14017778Y-14771111D01*
X-14113333Y-14818889D01*
X-14970000Y-14818889D01*
X-14017778Y-13946667D02*
X-13970000Y-14042223D01*
X-13970000Y-14232223D01*
X-14017778Y-14327778D01*
X-14113333Y-14375556D01*
X-14493333Y-14375556D01*
X-14588889Y-14327778D01*
X-14636667Y-14232223D01*
X-14636667Y-14042223D01*
X-14588889Y-13946667D01*
X-14493333Y-13898889D01*
X-14398889Y-13898889D01*
X-14303333Y-14375556D01*
X-38735000Y-2810000D02*
X-38163889Y-2810000D01*
X-38449444Y-3810000D02*
X-38449444Y-2810000D01*
X-37863889Y-3810000D02*
X-37863889Y-2810000D01*
X-37863889Y-3286667D02*
X-37292778Y-3286667D01*
X-37292778Y-3810000D02*
X-37292778Y-2810000D01*
X-36278334Y-3905556D02*
X-36373889Y-3857778D01*
X-36469445Y-3762222D01*
X-36611667Y-3620000D01*
X-36707222Y-3572222D01*
X-36802778Y-3572222D01*
X-36755000Y-3810000D02*
X-36849445Y-3762222D01*
X-36945000Y-3666667D01*
X-36992778Y-3476667D01*
X-36992778Y-3143333D01*
X-36945000Y-2953333D01*
X-36849445Y-2857778D01*
X-36755000Y-2810000D01*
X-36563889Y-2810000D01*
X-36469445Y-2857778D01*
X-36373889Y-2953333D01*
X-36326111Y-3143333D01*
X-36326111Y-3476667D01*
X-36373889Y-3666667D01*
X-36469445Y-3762222D01*
X-36563889Y-3810000D01*
X-36755000Y-3810000D01*
X-35407223Y-3810000D02*
X-35740556Y-3333333D01*
X-35978334Y-3810000D02*
X-35978334Y-2810000D01*
X-35597223Y-2810000D01*
X-35501667Y-2857778D01*
X-35455001Y-2905556D01*
X-35407223Y-3000000D01*
X-35407223Y-3143333D01*
X-35455001Y-3238889D01*
X-35501667Y-3286667D01*
X-35597223Y-3333333D01*
X-35978334Y-3333333D01*
X-35059445Y-3810000D02*
X-35059445Y-3143333D01*
X-35059445Y-2810000D02*
X-35107223Y-2857778D01*
X-35059445Y-2905556D01*
X-35011667Y-2857778D01*
X-35059445Y-2810000D01*
X-35059445Y-2905556D01*
X-34235000Y-3143333D02*
X-34235000Y-3953333D01*
X-34282778Y-4047778D01*
X-34330556Y-4095556D01*
X-34426111Y-4143333D01*
X-34568334Y-4143333D01*
X-34663889Y-4095556D01*
X-34235000Y-3762222D02*
X-34330556Y-3810000D01*
X-34521667Y-3810000D01*
X-34616111Y-3762222D01*
X-34663889Y-3714444D01*
X-34711667Y-3620000D01*
X-34711667Y-3333333D01*
X-34663889Y-3238889D01*
X-34616111Y-3191111D01*
X-34521667Y-3143333D01*
X-34330556Y-3143333D01*
X-34235000Y-3191111D01*
X-33935000Y-3810000D02*
X-33935000Y-2810000D01*
X-33506111Y-3810000D02*
X-33506111Y-3286667D01*
X-33553889Y-3191111D01*
X-33649444Y-3143333D01*
X-33791667Y-3143333D01*
X-33887222Y-3191111D01*
X-33935000Y-3238889D01*
X-33206111Y-3143333D02*
X-32825000Y-3143333D01*
X-33062778Y-2810000D02*
X-33062778Y-3666667D01*
X-33016111Y-3762222D01*
X-32920555Y-3810000D01*
X-32825000Y-3810000D01*
X-32525000Y-2810000D02*
X-31953889Y-2810000D01*
X-32239444Y-3810000D02*
X-32239444Y-2810000D01*
X-31653889Y-3810000D02*
X-31653889Y-2810000D01*
X-31225000Y-3810000D02*
X-31225000Y-3286667D01*
X-31272778Y-3191111D01*
X-31368333Y-3143333D01*
X-31510556Y-3143333D01*
X-31606111Y-3191111D01*
X-31653889Y-3238889D01*
X-30925000Y-3810000D02*
X-30925000Y-3143333D01*
X-30925000Y-3333333D02*
X-30877222Y-3238889D01*
X-30829444Y-3191111D01*
X-30735000Y-3143333D01*
X-30639444Y-3143333D01*
X-30149444Y-3810000D02*
X-30243888Y-3762222D01*
X-30291666Y-3714444D01*
X-30339444Y-3620000D01*
X-30339444Y-3333333D01*
X-30291666Y-3238889D01*
X-30243888Y-3191111D01*
X-30149444Y-3143333D01*
X-30006111Y-3143333D01*
X-29910555Y-3191111D01*
X-29862777Y-3238889D01*
X-29816111Y-3333333D01*
X-29816111Y-3620000D01*
X-29862777Y-3714444D01*
X-29910555Y-3762222D01*
X-30006111Y-3810000D01*
X-30149444Y-3810000D01*
X-29516111Y-3143333D02*
X-29135000Y-3143333D01*
X-29372778Y-2810000D02*
X-29372778Y-3666667D01*
X-29326111Y-3762222D01*
X-29230555Y-3810000D01*
X-29135000Y-3810000D01*
X-28835000Y-3143333D02*
X-28453889Y-3143333D01*
X-28691667Y-2810000D02*
X-28691667Y-3666667D01*
X-28645000Y-3762222D01*
X-28549444Y-3810000D01*
X-28453889Y-3810000D01*
X-28010556Y-3810000D02*
X-28106111Y-3762222D01*
X-28153889Y-3666667D01*
X-28153889Y-2810000D01*
X-27281667Y-3762222D02*
X-27377223Y-3810000D01*
X-27567223Y-3810000D01*
X-27662778Y-3762222D01*
X-27710556Y-3666667D01*
X-27710556Y-3286667D01*
X-27662778Y-3191111D01*
X-27567223Y-3143333D01*
X-27377223Y-3143333D01*
X-27281667Y-3191111D01*
X-27233889Y-3286667D01*
X-27233889Y-3381111D01*
X-27710556Y-3476667D01*
%LPC*%
D13*
G04 #@! TO.C,J_HAT*
X-13970000Y8255000D03*
D14*
X-13970000Y3175000D03*
X-13970000Y-4445000D03*
X-13970000Y635000D03*
X-13970000Y5715000D03*
X-13970000Y-1905000D03*
D15*
G04 #@! TO.C,J_2WAY2*
X-3810000Y-35560000D03*
D16*
X1270000Y-35560000D03*
D15*
X-1270000Y-35560000D03*
D14*
G04 #@! TO.C,J_TDC*
X13335000Y-1905000D03*
X13335000Y5715000D03*
X13335000Y635000D03*
D13*
X13335000Y-4445000D03*
D14*
X13335000Y3175000D03*
D15*
G04 #@! TO.C,J_3WAY*
X-3810000Y-43180000D03*
X-1270000Y-43180000D03*
X-6350000Y-43180000D03*
D16*
X1270000Y-43180000D03*
D14*
G04 #@! TO.C,J_PUSH*
X-35560000Y3175000D03*
D13*
X-35560000Y635000D03*
D14*
G04 #@! TO.C,J_DOWN*
X-29210000Y3175000D03*
D13*
X-29210000Y635000D03*
D14*
G04 #@! TO.C,J_LEFT*
X-22860000Y3175000D03*
D13*
X-22860000Y635000D03*
D17*
G04 #@! TO.C,U_PRO_MICRO*
X7620000Y-6985000D03*
X-7620000Y-4445000D03*
X7620000Y5715000D03*
X-7620000Y8255000D03*
X7620000Y10795000D03*
X-7620000Y-6985000D03*
X-7620000Y-9525000D03*
X7620000Y-4445000D03*
X-7620000Y3175000D03*
X7620000Y-17145000D03*
X-7620000Y5715000D03*
X7620000Y-12065000D03*
X-7620000Y-14605000D03*
X7620000Y-14605000D03*
X-7620000Y-1905000D03*
X-7620000Y-12065000D03*
X-7620000Y-17145000D03*
X-7620000Y635000D03*
X7620000Y8255000D03*
X7620000Y635000D03*
X7620000Y-9525000D03*
X7620000Y-1905000D03*
X-7620000Y10795000D03*
X7620000Y3175000D03*
D15*
G04 #@! TO.C,J_2WAY1*
X-3810000Y-39370000D03*
D16*
X1270000Y-39370000D03*
D15*
X-1270000Y-39370000D03*
D14*
G04 #@! TO.C,J_RIGHT*
X-26035000Y3175000D03*
D13*
X-26035000Y635000D03*
D14*
G04 #@! TO.C,J_UP*
X-32385000Y3175000D03*
D13*
X-32385000Y635000D03*
D15*
G04 #@! TO.C,J_SWITCHES2*
X-3810000Y-28575000D03*
X1270000Y-28575000D03*
X3810000Y-28575000D03*
X-8890000Y-28575000D03*
D16*
X8890000Y-28575000D03*
D15*
X6350000Y-28575000D03*
X-1270000Y-28575000D03*
X-6350000Y-28575000D03*
G04 #@! TO.C,J_SWITCHES*
X-3810000Y-24130000D03*
X1270000Y-24130000D03*
X3810000Y-24130000D03*
X-8890000Y-24130000D03*
D16*
X8890000Y-24130000D03*
D15*
X6350000Y-24130000D03*
X-1270000Y-24130000D03*
X-6350000Y-24130000D03*
D13*
G04 #@! TO.C,J_HAT2*
X-18415000Y8255000D03*
D14*
X-18415000Y3175000D03*
X-18415000Y-4445000D03*
X-18415000Y635000D03*
X-18415000Y5715000D03*
X-18415000Y-1905000D03*
G04 --- BOARD END --- *
G04 #@! TF.MD5,ed3f045e5ec24f40f25bb2a57494636c*
M02*
