M48
; #@! TF.GenerationSoftware,LibrePCB,LibrePCB,0.1.7
; #@! TF.CreationDate,2023-06-03T19:29:22
; #@! TF.ProjectId,THQRightThrottle,1801acc5-9244-403a-a77d-ebbcc31c52c0,v1
; #@! TF.Part,Single
; #@! TF.SameCoordinates
; #@! TF.FileFunction,MixedPlating,1,2
FMAT,2
METRIC,TZ
; #@! TA.AperFunction,Plated,PTH,ComponentDrill
T1C1.0
%
G90
G05
M71
T1
X-18.415Y-1.905
X-18.415Y5.715
X-18.415Y0.635
X-18.415Y-4.445
X-18.415Y3.175
X-18.415Y8.255
X-6.35Y-24.13
X-1.27Y-24.13
X6.35Y-24.13
X8.89Y-24.13
X-8.89Y-24.13
X3.81Y-24.13
X1.27Y-24.13
X-3.81Y-24.13
X-6.35Y-28.575
X-1.27Y-28.575
X6.35Y-28.575
X8.89Y-28.575
X-8.89Y-28.575
X3.81Y-28.575
X1.27Y-28.575
X-3.81Y-28.575
X-32.385Y0.635
X-32.385Y3.175
X-26.035Y0.635
X-26.035Y3.175
X-1.27Y-39.37
X1.27Y-39.37
X-3.81Y-39.37
X7.62Y3.175
X-7.62Y10.795
X7.62Y-1.905
X7.62Y-9.525
X7.62Y0.635
X7.62Y8.255
X-7.62Y0.635
X-7.62Y-17.145
X-7.62Y-12.065
X-7.62Y-1.905
X7.62Y-14.605
X-7.62Y-14.605
X7.62Y-12.065
X-7.62Y5.715
X7.62Y-17.145
X-7.62Y3.175
X7.62Y-4.445
X-7.62Y-9.525
X-7.62Y-6.985
X7.62Y10.795
X-7.62Y8.255
X7.62Y5.715
X-7.62Y-4.445
X7.62Y-6.985
X-22.86Y0.635
X-22.86Y3.175
X-29.21Y0.635
X-29.21Y3.175
X-35.56Y0.635
X-35.56Y3.175
X1.27Y-43.18
X-6.35Y-43.18
X-1.27Y-43.18
X-3.81Y-43.18
X13.335Y3.175
X13.335Y-4.445
X13.335Y0.635
X13.335Y5.715
X13.335Y-1.905
X-1.27Y-35.56
X1.27Y-35.56
X-3.81Y-35.56
X-13.97Y-1.905
X-13.97Y5.715
X-13.97Y0.635
X-13.97Y-4.445
X-13.97Y3.175
X-13.97Y8.255
T0
M30
